<svg xmlns="http://www.w3.org/2000/svg" xmlns:xlink="http://www.w3.org/1999/xlink" width="500" zoomAndPan="magnify" viewBox="0 0 375 374.999991" height="500" preserveAspectRatio="xMidYMid meet" version="1.0"><defs><g/></defs><path stroke-linecap="butt" transform="matrix(0.75, 0, 0, 0.75, 96.920674, -0.80554)" fill="none" stroke-linejoin="miter" d="M 170.824529 73.678224 L 170.824529 76.620933 C 161.704737 78.313641 155.897445 82.105308 153.407861 87.990725 C 150.913069 93.876142 149.668278 101.485518 149.668278 110.813643 L 149.668278 221.199067 C 149.668278 230.792818 148.079736 239.886568 144.897444 248.475111 C 141.767235 257.01157 136.996402 264.537612 130.584943 271.058446 C 124.168276 277.584488 116.241192 282.751155 106.803691 286.568863 C 97.366191 290.334488 86.444315 292.214697 74.038064 292.214697 C 60.147438 292.214697 46.788063 289.14178 33.959937 282.990738 C 21.178686 276.787613 10.230768 268.568862 1.116185 258.334486 L 0.47556 257.381361 L 33.32452 203.303233 L 36.26202 204.579274 C 35.204728 209.136566 34.16827 213.641775 33.163062 218.0949 C 32.209937 222.548026 31.73077 226.949068 31.73077 231.298026 C 31.73077 237.396985 32.819312 243.120944 34.991187 248.475111 C 37.16827 253.777194 40.13702 258.443861 43.897437 262.469903 C 47.715146 266.44907 52.220355 269.57407 57.418272 271.855321 C 62.668272 274.136571 68.340147 275.277196 74.439106 275.277196 C 81.595357 275.277196 87.720357 274.032404 92.808899 271.537612 C 97.897441 269.048029 101.954733 265.678237 104.975566 261.438653 C 108.048483 257.19907 110.27765 252.318861 111.657858 246.803236 C 113.084942 241.240735 113.803692 235.53761 113.803692 229.709484 L 113.803692 112.407393 C 113.803692 107.209476 113.538067 102.438643 113.006817 98.089684 C 112.475567 93.745934 111.4964 90.00635 110.064108 86.876142 C 108.631817 83.699058 106.512025 81.25635 103.704733 79.563641 C 100.892233 77.813641 97.209941 76.829266 92.647441 76.620933 L 92.647441 73.678224 Z M 170.824529 73.678224 " stroke="#ffffff" stroke-width="24.43095" stroke-opacity="1" stroke-miterlimit="4"/><g fill="#000000" fill-opacity="1"><g transform="translate(102.885517, 215.194446)"><g><path d="M 122.15625 -160.75 L 122.15625 -158.5625 C 115.3125 -157.257812 110.953125 -154.40625 109.078125 -150 C 107.210938 -145.601562 106.28125 -139.90625 106.28125 -132.90625 L 106.28125 -50.078125 C 106.28125 -42.910156 105.097656 -36.109375 102.734375 -29.671875 C 100.367188 -23.242188 96.785156 -17.585938 91.984375 -12.703125 C 87.179688 -7.816406 81.234375 -3.945312 74.140625 -1.09375 C 67.054688 1.75 58.875 3.171875 49.59375 3.171875 C 39.164062 3.171875 29.144531 0.851562 19.53125 -3.78125 C 9.925781 -8.425781 1.707031 -14.578125 -5.125 -22.234375 L -5.625 -22.96875 L 19.0625 -63.515625 L 21.25 -62.546875 C 20.4375 -59.117188 19.660156 -55.734375 18.921875 -52.390625 C 18.191406 -49.054688 17.828125 -45.765625 17.828125 -42.515625 C 17.828125 -37.953125 18.640625 -33.675781 20.265625 -29.6875 C 21.898438 -25.695312 24.140625 -22.191406 26.984375 -19.171875 C 29.835938 -16.160156 33.21875 -13.800781 37.125 -12.09375 C 41.039062 -10.382812 45.28125 -9.53125 49.84375 -9.53125 C 55.21875 -9.53125 59.816406 -10.460938 63.640625 -12.328125 C 67.472656 -14.203125 70.523438 -16.726562 72.796875 -19.90625 C 75.078125 -23.082031 76.75 -26.75 77.8125 -30.90625 C 78.875 -35.0625 79.40625 -39.335938 79.40625 -43.734375 L 79.40625 -131.6875 C 79.40625 -135.59375 79.203125 -139.175781 78.796875 -142.4375 C 78.390625 -145.695312 77.65625 -148.503906 76.59375 -150.859375 C 75.53125 -153.222656 73.941406 -155.054688 71.828125 -156.359375 C 69.710938 -157.660156 66.941406 -158.394531 63.515625 -158.5625 L 63.515625 -160.75 Z M 122.15625 -160.75 "/></g></g></g><path stroke-linecap="butt" transform="matrix(0.75, 0, 0, 0.75, 150.370703, 97.215778)" fill="none" stroke-linejoin="miter" d="M 158.792198 100.988344 L 156.177614 101.49876 C 155.839072 100.774802 154.625531 98.628969 152.542197 95.056052 C 150.458864 91.488343 147.271363 87.701885 142.974488 83.707093 C 138.724488 79.712301 133.115113 76.160217 126.141154 73.05605 C 119.208862 69.910217 110.599486 68.3373 100.313027 68.3373 C 90.745318 68.3373 82.349484 69.910217 75.125525 73.05605 C 67.896358 76.160217 61.797399 80.498759 56.818232 86.066468 C 51.844274 91.634176 48.083857 98.31126 45.531773 106.092511 C 43.026565 113.826886 41.771357 122.311262 41.771357 131.535221 C 41.771357 142.337305 43.469273 152.920639 46.870315 163.29564 C 50.271357 173.623765 55.182816 182.852932 61.604691 190.972725 C 68.068233 199.05085 75.95365 205.576892 85.260943 210.550851 C 94.573443 215.52481 105.161986 218.009185 117.021361 218.009185 C 123.099487 218.009185 128.010946 217.477935 131.750529 216.415435 C 135.495321 215.352935 138.365113 213.696684 140.359905 211.441476 C 142.401571 209.191476 143.71928 206.274809 144.318238 202.7071 C 144.911988 199.134184 145.208863 194.905017 145.208863 190.014391 L 145.208863 143.524805 C 145.208863 140.04043 145.036988 136.701888 144.698447 133.514388 C 144.359905 130.280012 143.615113 127.368554 142.464071 124.774804 C 141.359905 122.139387 139.703655 119.91022 137.490113 118.082095 C 135.323446 116.25397 132.411987 115.082095 128.755737 114.571678 L 128.755737 112.212303 L 187.297408 112.212303 L 187.297408 114.571678 C 181.391157 115.764386 177.688032 117.84772 176.203657 120.821678 C 174.714074 123.800845 173.969282 127.878971 173.969282 133.066471 L 173.969282 207.295642 C 173.969282 213.207101 174.75574 217.77481 176.328657 221.009185 C 177.901574 224.196685 181.557824 226.49356 187.297408 227.894602 L 187.297408 229.998769 L 117.531778 229.998769 C 109.370319 229.998769 101.885944 229.660227 95.08386 228.977935 C 88.281776 228.259185 82.010942 227.066477 76.271359 225.410227 C 70.531775 223.748768 65.130733 221.665435 60.073441 219.160227 C 55.016149 216.64981 50.146357 213.566476 45.469273 209.910226 C 38.66719 204.681059 32.990106 198.941475 28.443231 192.691475 C 23.938022 186.399808 20.323438 180.003974 17.59948 173.498765 C 14.922396 166.95189 13.052605 160.467514 11.990105 154.045639 C 10.969271 147.587305 10.458854 141.462305 10.458854 135.681054 C 10.458854 122.290428 12.714063 110.556053 17.219272 100.477927 C 21.766147 90.358135 27.953647 81.899801 35.776564 75.097717 C 43.599482 68.295633 52.823441 63.217508 63.45365 59.858133 C 74.083859 56.457091 85.583859 54.753966 97.953652 54.753966 C 102.292194 54.753966 106.667194 55.009174 111.089069 55.519591 C 115.552611 56.030007 120.063028 56.540424 124.609904 57.050841 C 131.411987 58.113341 135.771363 58.644591 137.682821 58.644591 C 142.698446 58.644591 146.698447 56.644591 149.672405 52.649799 Z M 158.792198 100.988344 " stroke="#ffffff" stroke-width="19.5912" stroke-opacity="1" stroke-miterlimit="4"/><g fill="#000000" fill-opacity="1"><g transform="translate(150.370703, 269.715767)"><g><path d="M 119.109375 -96.78125 L 117.15625 -96.390625 C 116.894531 -96.910156 115.976562 -98.507812 114.40625 -101.1875 C 112.84375 -103.863281 110.457031 -106.703125 107.25 -109.703125 C 104.050781 -112.710938 99.835938 -115.390625 94.609375 -117.734375 C 89.390625 -120.085938 82.929688 -121.265625 75.234375 -121.265625 C 68.046875 -121.265625 61.738281 -120.085938 56.3125 -117.734375 C 50.894531 -115.390625 46.328125 -112.125 42.609375 -107.9375 C 38.890625 -103.757812 36.082031 -98.765625 34.1875 -92.953125 C 32.289062 -87.140625 31.34375 -80.773438 31.34375 -73.859375 C 31.34375 -65.753906 32.613281 -57.816406 35.15625 -50.046875 C 37.707031 -42.273438 41.398438 -35.351562 46.234375 -29.28125 C 51.066406 -23.207031 56.972656 -18.3125 63.953125 -14.59375 C 70.941406 -10.875 78.878906 -9.015625 87.765625 -9.015625 C 92.335938 -9.015625 96.023438 -9.40625 98.828125 -10.1875 C 101.640625 -10.96875 103.796875 -12.207031 105.296875 -13.90625 C 106.796875 -15.601562 107.773438 -17.789062 108.234375 -20.46875 C 108.691406 -23.144531 108.921875 -26.3125 108.921875 -29.96875 L 108.921875 -64.84375 C 108.921875 -67.457031 108.789062 -69.972656 108.53125 -72.390625 C 108.269531 -74.804688 107.710938 -76.992188 106.859375 -78.953125 C 106.015625 -80.910156 104.773438 -82.570312 103.140625 -83.9375 C 101.515625 -85.3125 99.328125 -86.195312 96.578125 -86.59375 L 96.578125 -88.359375 L 140.46875 -88.359375 L 140.46875 -86.59375 C 136.019531 -85.675781 133.238281 -84.109375 132.125 -81.890625 C 131.019531 -79.671875 130.46875 -76.601562 130.46875 -72.6875 L 130.46875 -17.046875 C 130.46875 -12.609375 131.054688 -9.179688 132.234375 -6.765625 C 133.410156 -4.347656 136.15625 -2.613281 140.46875 -1.5625 L 140.46875 0 L 88.15625 0 C 82.019531 0 76.40625 -0.257812 71.3125 -0.78125 C 66.21875 -1.300781 61.515625 -2.179688 57.203125 -3.421875 C 52.890625 -4.671875 48.835938 -6.238281 45.046875 -8.125 C 41.265625 -10.019531 37.613281 -12.335938 34.09375 -15.078125 C 29 -19.003906 24.753906 -23.316406 21.359375 -28.015625 C 17.960938 -32.710938 15.25 -37.507812 13.21875 -42.40625 C 11.195312 -47.3125 9.796875 -52.175781 9.015625 -57 C 8.234375 -61.832031 7.84375 -66.40625 7.84375 -70.71875 C 7.84375 -80.78125 9.535156 -89.597656 12.921875 -97.171875 C 16.316406 -104.742188 20.953125 -111.078125 26.828125 -116.171875 C 32.710938 -121.265625 39.640625 -125.082031 47.609375 -127.625 C 55.578125 -130.175781 64.195312 -131.453125 73.46875 -131.453125 C 76.726562 -131.453125 80.023438 -131.253906 83.359375 -130.859375 C 86.691406 -130.472656 90.054688 -130.082031 93.453125 -129.6875 C 98.546875 -128.90625 101.8125 -128.515625 103.25 -128.515625 C 107.03125 -128.515625 110.03125 -130.015625 112.25 -133.015625 Z M 119.109375 -96.78125 "/></g></g></g></svg>